<mxfile host="Electron" modified="2024-07-09T06:34:25.092Z" agent="Mozilla/5.0 (Windows NT 10.0; Win64; x64) AppleWebKit/537.36 (KHTML, like Gecko) draw.io/24.5.3 Chrome/124.0.6367.207 Electron/30.0.6 Safari/537.36" etag="5M3pZOEUcwMTXi3OllMX" version="24.5.3" type="device">
  <diagram name="Page-1" id="P7zbLZ13kuuZuYdzMiIO">
    <mxGraphModel dx="3520" dy="1984" grid="1" gridSize="10" guides="1" tooltips="1" connect="1" arrows="1" fold="1" page="0" pageScale="1" pageWidth="850" pageHeight="1100" math="0" shadow="0">
      <root>
        <mxCell id="0" />
        <mxCell id="1" parent="0" />
        <mxCell id="6q0_t8DYAI5YDyTMYEAV-20" style="edgeStyle=orthogonalEdgeStyle;rounded=0;orthogonalLoop=1;jettySize=auto;html=1;exitX=0.25;exitY=1;exitDx=0;exitDy=0;exitPerimeter=0;strokeWidth=5;" edge="1" parent="1" source="6q0_t8DYAI5YDyTMYEAV-3">
          <mxGeometry relative="1" as="geometry">
            <mxPoint x="228.99999999999955" y="200" as="targetPoint" />
          </mxGeometry>
        </mxCell>
        <mxCell id="6q0_t8DYAI5YDyTMYEAV-21" style="edgeStyle=orthogonalEdgeStyle;rounded=0;orthogonalLoop=1;jettySize=auto;html=1;exitX=0.5;exitY=1;exitDx=0;exitDy=0;exitPerimeter=0;strokeWidth=5;" edge="1" parent="1" source="6q0_t8DYAI5YDyTMYEAV-3">
          <mxGeometry relative="1" as="geometry">
            <mxPoint x="558.9999999999995" y="200" as="targetPoint" />
            <Array as="points">
              <mxPoint x="399" y="159" />
              <mxPoint x="559" y="159" />
            </Array>
          </mxGeometry>
        </mxCell>
        <mxCell id="6q0_t8DYAI5YDyTMYEAV-3" value="" style="sketch=0;points=[[0,0,0],[0.25,0,0],[0.5,0,0],[0.75,0,0],[1,0,0],[0,1,0],[0.25,1,0],[0.5,1,0],[0.75,1,0],[1,1,0],[0,0.25,0],[0,0.5,0],[0,0.75,0],[1,0.25,0],[1,0.5,0],[1,0.75,0]];points=[[0,0,0],[0.25,0,0],[0.5,0,0],[0.75,0,0],[1,0,0],[0,1,0],[0.25,1,0],[0.5,1,0],[0.75,1,0],[1,1,0],[0,0.25,0],[0,0.5,0],[0,0.75,0],[1,0.25,0],[1,0.5,0],[1,0.75,0]];outlineConnect=0;fontColor=#232F3E;fillColor=#E7157B;strokeColor=#ffffff;dashed=0;verticalLabelPosition=bottom;verticalAlign=top;align=center;html=1;fontSize=12;fontStyle=0;aspect=fixed;shape=mxgraph.aws4.resourceIcon;resIcon=mxgraph.aws4.cloudwatch_2;" vertex="1" parent="1">
          <mxGeometry x="360" y="40" width="78" height="78" as="geometry" />
        </mxCell>
        <mxCell id="6q0_t8DYAI5YDyTMYEAV-9" value="&lt;span style=&quot;color: rgb(240, 240, 240); font-family: Helvetica; font-style: normal; font-variant-ligatures: normal; font-variant-caps: normal; letter-spacing: normal; orphans: 2; text-align: center; text-indent: 0px; text-transform: none; widows: 2; word-spacing: 0px; -webkit-text-stroke-width: 0px; white-space: normal; background-color: rgb(27, 29, 30); text-decoration-thickness: initial; text-decoration-style: initial; text-decoration-color: initial; float: none; display: inline !important;&quot;&gt;&lt;b style=&quot;&quot;&gt;&lt;font style=&quot;font-size: 14px;&quot;&gt;CloudWatch&lt;/font&gt;&lt;/b&gt;&lt;/span&gt;" style="text;whiteSpace=wrap;html=1;" vertex="1" parent="1">
          <mxGeometry x="360" y="10" width="90" height="40" as="geometry" />
        </mxCell>
        <mxCell id="6q0_t8DYAI5YDyTMYEAV-25" value="" style="endArrow=none;dashed=1;html=1;rounded=0;strokeWidth=6;" edge="1" parent="1">
          <mxGeometry width="50" height="50" relative="1" as="geometry">
            <mxPoint x="-330" y="400" as="sourcePoint" />
            <mxPoint x="1320" y="400" as="targetPoint" />
          </mxGeometry>
        </mxCell>
        <mxCell id="6q0_t8DYAI5YDyTMYEAV-26" value="&lt;div style=&quot;text-align: justify;&quot;&gt;&lt;span style=&quot;font-size: 14px; background-color: initial;&quot;&gt;AWS Lambda&lt;/span&gt;&lt;/div&gt;" style="sketch=0;outlineConnect=0;fontColor=#232F3E;gradientColor=none;strokeColor=#ffffff;fillColor=#232F3E;dashed=0;verticalLabelPosition=middle;verticalAlign=bottom;align=center;html=1;whiteSpace=wrap;fontSize=10;fontStyle=1;spacing=3;shape=mxgraph.aws4.productIcon;prIcon=mxgraph.aws4.lambda;" vertex="1" parent="1">
          <mxGeometry x="348" y="480" width="102" height="140" as="geometry" />
        </mxCell>
        <mxCell id="6q0_t8DYAI5YDyTMYEAV-27" value="" style="sketch=0;outlineConnect=0;fontColor=#232F3E;gradientColor=none;fillColor=#DD344C;strokeColor=none;dashed=0;verticalLabelPosition=bottom;verticalAlign=top;align=center;html=1;fontSize=12;fontStyle=0;aspect=fixed;pointerEvents=1;shape=mxgraph.aws4.role;" vertex="1" parent="1">
          <mxGeometry x="640" y="480" width="124" height="69.95" as="geometry" />
        </mxCell>
        <mxCell id="6q0_t8DYAI5YDyTMYEAV-28" value="" style="outlineConnect=0;dashed=0;verticalLabelPosition=bottom;verticalAlign=top;align=center;html=1;shape=mxgraph.aws3.iam;fillColor=#759C3E;gradientColor=none;rotation=90;" vertex="1" parent="1">
          <mxGeometry x="1137.38" y="58.13" width="61" height="119.75" as="geometry" />
        </mxCell>
        <mxCell id="6q0_t8DYAI5YDyTMYEAV-30" value="&lt;b&gt;&lt;font style=&quot;font-size: 14px;&quot;&gt;IAM&lt;/font&gt;&lt;/b&gt;" style="text;html=1;align=center;verticalAlign=middle;resizable=0;points=[];autosize=1;strokeColor=none;fillColor=none;" vertex="1" parent="1">
          <mxGeometry x="1146" y="150" width="50" height="30" as="geometry" />
        </mxCell>
        <mxCell id="6q0_t8DYAI5YDyTMYEAV-33" value="" style="sketch=0;pointerEvents=1;shadow=0;dashed=0;html=1;strokeColor=none;labelPosition=center;verticalLabelPosition=bottom;verticalAlign=top;align=center;fillColor=#505050;shape=mxgraph.mscae.intune.policy" vertex="1" parent="1">
          <mxGeometry x="1130" y="200" width="80" height="80" as="geometry" />
        </mxCell>
        <mxCell id="6q0_t8DYAI5YDyTMYEAV-34" value="&lt;font style=&quot;font-size: 14px;&quot;&gt;&lt;b&gt;IAM Policy&lt;/b&gt;&lt;/font&gt;" style="text;html=1;align=center;verticalAlign=middle;resizable=0;points=[];autosize=1;strokeColor=none;fillColor=none;" vertex="1" parent="1">
          <mxGeometry x="1126" y="298" width="90" height="30" as="geometry" />
        </mxCell>
        <mxCell id="6q0_t8DYAI5YDyTMYEAV-35" value="" style="endArrow=none;dashed=1;html=1;rounded=0;fillColor=#ffcd28;gradientColor=#ffa500;strokeColor=#d79b00;strokeWidth=3;" edge="1" parent="1">
          <mxGeometry width="50" height="50" relative="1" as="geometry">
            <mxPoint x="1080" y="50" as="sourcePoint" />
            <mxPoint x="1260" y="50" as="targetPoint" />
          </mxGeometry>
        </mxCell>
        <mxCell id="6q0_t8DYAI5YDyTMYEAV-36" value="" style="endArrow=none;dashed=1;html=1;rounded=0;fillColor=#ffcd28;gradientColor=#ffa500;strokeColor=#d79b00;strokeWidth=3;" edge="1" parent="1">
          <mxGeometry width="50" height="50" relative="1" as="geometry">
            <mxPoint x="1080" y="340" as="sourcePoint" />
            <mxPoint x="1260" y="340" as="targetPoint" />
          </mxGeometry>
        </mxCell>
        <mxCell id="6q0_t8DYAI5YDyTMYEAV-37" value="" style="endArrow=none;dashed=1;html=1;rounded=0;fillColor=#ffcd28;gradientColor=#ffa500;strokeColor=#d79b00;strokeWidth=3;" edge="1" parent="1">
          <mxGeometry width="50" height="50" relative="1" as="geometry">
            <mxPoint x="1080" y="340" as="sourcePoint" />
            <mxPoint x="1080" y="50" as="targetPoint" />
          </mxGeometry>
        </mxCell>
        <mxCell id="6q0_t8DYAI5YDyTMYEAV-38" value="" style="endArrow=none;dashed=1;html=1;rounded=0;fillColor=#ffcd28;gradientColor=#ffa500;strokeColor=#d79b00;strokeWidth=3;" edge="1" parent="1">
          <mxGeometry width="50" height="50" relative="1" as="geometry">
            <mxPoint x="1260" y="340" as="sourcePoint" />
            <mxPoint x="1260" y="60" as="targetPoint" />
          </mxGeometry>
        </mxCell>
        <mxCell id="6q0_t8DYAI5YDyTMYEAV-39" value="&lt;b&gt;&lt;font style=&quot;font-size: 14px;&quot;&gt;Lambda Execution role&lt;/font&gt;&lt;/b&gt;" style="text;html=1;align=center;verticalAlign=middle;resizable=0;points=[];autosize=1;strokeColor=none;fillColor=none;" vertex="1" parent="1">
          <mxGeometry x="628" y="548" width="180" height="30" as="geometry" />
        </mxCell>
        <mxCell id="6q0_t8DYAI5YDyTMYEAV-40" value="" style="shape=flexArrow;endArrow=classic;html=1;rounded=0;fillColor=#cdeb8b;strokeColor=#36393d;strokeWidth=1;endSize=12.52;endWidth=24;" edge="1" parent="1">
          <mxGeometry width="50" height="50" relative="1" as="geometry">
            <mxPoint x="1170" y="340" as="sourcePoint" />
            <mxPoint x="780" y="518" as="targetPoint" />
            <Array as="points">
              <mxPoint x="1170" y="518" />
              <mxPoint x="1110" y="518" />
            </Array>
          </mxGeometry>
        </mxCell>
        <mxCell id="6q0_t8DYAI5YDyTMYEAV-41" value="&lt;font style=&quot;font-size: 14px;&quot;&gt;&lt;b&gt;Attach Policy&lt;/b&gt;&lt;/font&gt;" style="text;html=1;align=center;verticalAlign=middle;resizable=0;points=[];autosize=1;strokeColor=none;fillColor=none;" vertex="1" parent="1">
          <mxGeometry x="1184" y="460" width="110" height="30" as="geometry" />
        </mxCell>
        <mxCell id="6q0_t8DYAI5YDyTMYEAV-42" value="" style="endArrow=classic;html=1;rounded=0;exitX=0.513;exitY=1.226;exitDx=0;exitDy=0;exitPerimeter=0;strokeWidth=5;" edge="1" parent="1">
          <mxGeometry width="50" height="50" relative="1" as="geometry">
            <mxPoint x="230.42999999999984" y="316.78" as="sourcePoint" />
            <mxPoint x="382" y="480" as="targetPoint" />
            <Array as="points">
              <mxPoint x="230" y="360" />
              <mxPoint x="320" y="360" />
              <mxPoint x="382" y="360" />
            </Array>
          </mxGeometry>
        </mxCell>
        <mxCell id="6q0_t8DYAI5YDyTMYEAV-43" value="" style="endArrow=classic;html=1;rounded=0;strokeWidth=5;" edge="1" parent="1">
          <mxGeometry width="50" height="50" relative="1" as="geometry">
            <mxPoint x="559" y="320" as="sourcePoint" />
            <mxPoint x="410" y="480" as="targetPoint" />
            <Array as="points">
              <mxPoint x="559" y="360" />
              <mxPoint x="470" y="360" />
              <mxPoint x="410" y="360" />
            </Array>
          </mxGeometry>
        </mxCell>
        <mxCell id="6q0_t8DYAI5YDyTMYEAV-46" value="" style="endArrow=none;dashed=1;html=1;rounded=0;strokeWidth=6;strokeColor=#0eacfb;" edge="1" parent="1">
          <mxGeometry width="50" height="50" relative="1" as="geometry">
            <mxPoint x="-61" y="1040" as="sourcePoint" />
            <mxPoint x="1160" y="1030" as="targetPoint" />
          </mxGeometry>
        </mxCell>
        <mxCell id="6q0_t8DYAI5YDyTMYEAV-47" value="&lt;font style=&quot;font-size: 13px;&quot;&gt;AWS Secrets Manager&lt;/font&gt;" style="sketch=0;outlineConnect=0;fontColor=#232F3E;gradientColor=none;strokeColor=#ffffff;fillColor=#232F3E;dashed=0;verticalLabelPosition=middle;verticalAlign=bottom;align=center;html=1;whiteSpace=wrap;fontSize=10;fontStyle=1;spacing=3;shape=mxgraph.aws4.productIcon;prIcon=mxgraph.aws4.secrets_manager;" vertex="1" parent="1">
          <mxGeometry x="10" y="480" width="100" height="140" as="geometry" />
        </mxCell>
        <mxCell id="6q0_t8DYAI5YDyTMYEAV-48" value="" style="image;aspect=fixed;perimeter=ellipsePerimeter;html=1;align=center;shadow=0;dashed=0;spacingTop=3;image=img/lib/active_directory/security.svg;" vertex="1" parent="1">
          <mxGeometry x="200" y="588" width="40" height="63.49" as="geometry" />
        </mxCell>
        <mxCell id="6q0_t8DYAI5YDyTMYEAV-49" style="edgeStyle=orthogonalEdgeStyle;rounded=0;orthogonalLoop=1;jettySize=auto;html=1;exitX=0;exitY=0;exitDx=0;exitDy=0;entryX=0;entryY=0.75;entryDx=0;entryDy=0;" edge="1" parent="1" source="6q0_t8DYAI5YDyTMYEAV-48" target="6q0_t8DYAI5YDyTMYEAV-48">
          <mxGeometry relative="1" as="geometry" />
        </mxCell>
        <mxCell id="6q0_t8DYAI5YDyTMYEAV-50" value="" style="endArrow=classic;html=1;rounded=0;entryX=1;entryY=0.571;entryDx=0;entryDy=0;entryPerimeter=0;exitX=-0.023;exitY=0.54;exitDx=0;exitDy=0;exitPerimeter=0;strokeWidth=5;" edge="1" parent="1" source="6q0_t8DYAI5YDyTMYEAV-26" target="6q0_t8DYAI5YDyTMYEAV-47">
          <mxGeometry relative="1" as="geometry">
            <mxPoint x="470" y="490" as="sourcePoint" />
            <mxPoint x="560" y="490" as="targetPoint" />
          </mxGeometry>
        </mxCell>
        <mxCell id="6q0_t8DYAI5YDyTMYEAV-51" value="&lt;b&gt;&lt;font style=&quot;font-size: 14px;&quot;&gt;Fetch Secret (.pem key)&lt;/font&gt;&lt;/b&gt;" style="edgeLabel;resizable=0;html=1;;align=center;verticalAlign=middle;" connectable="0" vertex="1" parent="6q0_t8DYAI5YDyTMYEAV-50">
          <mxGeometry relative="1" as="geometry">
            <mxPoint y="16" as="offset" />
          </mxGeometry>
        </mxCell>
        <mxCell id="6q0_t8DYAI5YDyTMYEAV-54" style="edgeStyle=orthogonalEdgeStyle;rounded=0;orthogonalLoop=1;jettySize=auto;html=1;exitX=1;exitY=0.5;exitDx=0;exitDy=0;entryX=1;entryY=0.75;entryDx=0;entryDy=0;" edge="1" parent="1" source="6q0_t8DYAI5YDyTMYEAV-48" target="6q0_t8DYAI5YDyTMYEAV-48">
          <mxGeometry relative="1" as="geometry" />
        </mxCell>
        <mxCell id="6q0_t8DYAI5YDyTMYEAV-62" value="" style="outlineConnect=0;dashed=0;verticalLabelPosition=bottom;verticalAlign=top;align=center;html=1;shape=mxgraph.aws3.android;fillColor=#FFD44F;gradientColor=none;" vertex="1" parent="1">
          <mxGeometry x="450" y="460" width="73.5" height="84" as="geometry" />
        </mxCell>
        <mxCell id="6q0_t8DYAI5YDyTMYEAV-63" value="&lt;font style=&quot;font-size: 14px;&quot;&gt;&lt;b&gt;Python Boto3&lt;/b&gt;&lt;/font&gt;" style="text;html=1;align=center;verticalAlign=middle;resizable=0;points=[];autosize=1;strokeColor=none;fillColor=none;" vertex="1" parent="1">
          <mxGeometry x="455" y="544" width="110" height="30" as="geometry" />
        </mxCell>
        <mxCell id="6q0_t8DYAI5YDyTMYEAV-64" value="" style="sketch=0;outlineConnect=0;fontColor=#232F3E;gradientColor=none;fillColor=#E7157B;strokeColor=none;dashed=0;verticalLabelPosition=bottom;verticalAlign=top;align=center;html=1;fontSize=12;fontStyle=0;aspect=fixed;pointerEvents=1;shape=mxgraph.aws4.cloudwatch_logs;" vertex="1" parent="1">
          <mxGeometry x="-11.03" y="1250" width="147.93" height="110" as="geometry" />
        </mxCell>
        <mxCell id="6q0_t8DYAI5YDyTMYEAV-66" value="" style="outlineConnect=0;dashed=0;verticalLabelPosition=bottom;verticalAlign=top;align=center;html=1;shape=mxgraph.aws3.ec2;fillColor=#F58534;gradientColor=none;" vertex="1" parent="1">
          <mxGeometry x="798" y="1250" width="142.5" height="130" as="geometry" />
        </mxCell>
        <mxCell id="6q0_t8DYAI5YDyTMYEAV-67" value="Script" style="html=1;whiteSpace=wrap;strokeColor=none;fillColor=#0079D6;labelPosition=center;verticalLabelPosition=middle;verticalAlign=top;align=center;fontSize=12;outlineConnect=0;spacingTop=-6;fontColor=#FFFFFF;sketch=0;shape=mxgraph.sitemap.script;" vertex="1" parent="1">
          <mxGeometry x="940" y="1280" width="124" height="70" as="geometry" />
        </mxCell>
        <mxCell id="6q0_t8DYAI5YDyTMYEAV-70" value="Script" style="html=1;whiteSpace=wrap;strokeColor=none;fillColor=#0079D6;labelPosition=center;verticalLabelPosition=middle;verticalAlign=top;align=center;fontSize=12;outlineConnect=0;spacingTop=-6;fontColor=#FFFFFF;sketch=0;shape=mxgraph.sitemap.script;" vertex="1" parent="1">
          <mxGeometry x="673.5" y="1280" width="124" height="70" as="geometry" />
        </mxCell>
        <mxCell id="6q0_t8DYAI5YDyTMYEAV-73" value="&lt;span style=&quot;font-size: 13px;&quot;&gt;&lt;b&gt;&lt;br&gt;Based on Cloudwatch&amp;nbsp;&lt;br&gt;&amp;nbsp;events&lt;/b&gt;&lt;/span&gt;" style="rhombus;whiteSpace=wrap;html=1;fillColor=#1ba1e2;strokeColor=#006EAF;fontColor=#ffffff;" vertex="1" parent="1">
          <mxGeometry x="640" y="710" width="158" height="120" as="geometry" />
        </mxCell>
        <mxCell id="6q0_t8DYAI5YDyTMYEAV-78" value="" style="sketch=0;points=[[0,0,0],[0.25,0,0],[0.5,0,0],[0.75,0,0],[1,0,0],[0,1,0],[0.25,1,0],[0.5,1,0],[0.75,1,0],[1,1,0],[0,0.25,0],[0,0.5,0],[0,0.75,0],[1,0.25,0],[1,0.5,0],[1,0.75,0]];outlineConnect=0;fontColor=#232F3E;fillColor=#E7157B;strokeColor=#ffffff;dashed=0;verticalLabelPosition=bottom;verticalAlign=top;align=center;html=1;fontSize=12;fontStyle=0;aspect=fixed;shape=mxgraph.aws4.resourceIcon;resIcon=mxgraph.aws4.step_functions;" vertex="1" parent="1">
          <mxGeometry x="950" y="741" width="78" height="78" as="geometry" />
        </mxCell>
        <mxCell id="6q0_t8DYAI5YDyTMYEAV-80" value="" style="sketch=0;points=[[0,0,0],[0.25,0,0],[0.5,0,0],[0.75,0,0],[1,0,0],[0,1,0],[0.25,1,0],[0.5,1,0],[0.75,1,0],[1,1,0],[0,0.25,0],[0,0.5,0],[0,0.75,0],[1,0.25,0],[1,0.5,0],[1,0.75,0]];outlineConnect=0;fontColor=#232F3E;fillColor=#E7157B;strokeColor=#ffffff;dashed=0;verticalLabelPosition=bottom;verticalAlign=top;align=center;html=1;fontSize=12;fontStyle=0;aspect=fixed;shape=mxgraph.aws4.resourceIcon;resIcon=mxgraph.aws4.step_functions;" vertex="1" parent="1">
          <mxGeometry x="690" y="910" width="78" height="78" as="geometry" />
        </mxCell>
        <mxCell id="6q0_t8DYAI5YDyTMYEAV-81" value="&lt;b&gt;&lt;font style=&quot;font-size: 14px;&quot;&gt;Step function 2&amp;nbsp; &amp;nbsp;[ IOSA Controller stop ]&lt;/font&gt;&lt;/b&gt;" style="text;html=1;align=center;verticalAlign=middle;resizable=0;points=[];autosize=1;strokeColor=none;fillColor=none;" vertex="1" parent="1">
          <mxGeometry x="844" y="819" width="290" height="30" as="geometry" />
        </mxCell>
        <mxCell id="6q0_t8DYAI5YDyTMYEAV-82" value="&lt;b&gt;&lt;font style=&quot;font-size: 14px;&quot;&gt;Step function 1&amp;nbsp; &amp;nbsp;[ IOSA Controller start ]&lt;/font&gt;&lt;/b&gt;" style="text;html=1;align=center;verticalAlign=middle;resizable=0;points=[];autosize=1;strokeColor=none;fillColor=none;" vertex="1" parent="1">
          <mxGeometry x="584" y="988" width="290" height="30" as="geometry" />
        </mxCell>
        <mxCell id="6q0_t8DYAI5YDyTMYEAV-83" value="" style="endArrow=classic;html=1;rounded=0;strokeWidth=5;strokeColor=#e10e0e;" edge="1" parent="1" source="6q0_t8DYAI5YDyTMYEAV-73">
          <mxGeometry width="50" height="50" relative="1" as="geometry">
            <mxPoint x="720" y="770" as="sourcePoint" />
            <mxPoint x="950" y="770" as="targetPoint" />
            <Array as="points">
              <mxPoint x="850" y="770" />
            </Array>
          </mxGeometry>
        </mxCell>
        <mxCell id="6q0_t8DYAI5YDyTMYEAV-84" value="&lt;b&gt;&lt;font style=&quot;font-size: 14px;&quot;&gt;STOP&lt;/font&gt;&lt;/b&gt;" style="text;html=1;align=center;verticalAlign=middle;resizable=0;points=[];autosize=1;strokeColor=none;fillColor=none;strokeWidth=5;" vertex="1" parent="1">
          <mxGeometry x="788" y="730" width="60" height="30" as="geometry" />
        </mxCell>
        <mxCell id="6q0_t8DYAI5YDyTMYEAV-89" value="" style="endArrow=classic;html=1;rounded=0;entryX=0.5;entryY=0;entryDx=0;entryDy=0;entryPerimeter=0;strokeWidth=5;strokeColor=#0af025;" edge="1" parent="1">
          <mxGeometry width="50" height="50" relative="1" as="geometry">
            <mxPoint x="726" y="1020" as="sourcePoint" />
            <mxPoint x="725.5" y="1270" as="targetPoint" />
            <Array as="points">
              <mxPoint x="726" y="1150" />
            </Array>
          </mxGeometry>
        </mxCell>
        <mxCell id="6q0_t8DYAI5YDyTMYEAV-90" value="" style="endArrow=classic;html=1;rounded=0;strokeWidth=5;strokeColor=#e10e0e;" edge="1" parent="1">
          <mxGeometry width="50" height="50" relative="1" as="geometry">
            <mxPoint x="999" y="858" as="sourcePoint" />
            <mxPoint x="999" y="1269" as="targetPoint" />
            <Array as="points" />
          </mxGeometry>
        </mxCell>
        <mxCell id="6q0_t8DYAI5YDyTMYEAV-91" value="" style="endArrow=classic;html=1;rounded=0;strokeWidth=5;strokeColor=#0af025;exitX=0.5;exitY=1;exitDx=0;exitDy=0;" edge="1" parent="1" source="6q0_t8DYAI5YDyTMYEAV-73">
          <mxGeometry width="50" height="50" relative="1" as="geometry">
            <mxPoint x="720" y="850" as="sourcePoint" />
            <mxPoint x="720" y="910" as="targetPoint" />
            <Array as="points">
              <mxPoint x="720" y="880" />
            </Array>
          </mxGeometry>
        </mxCell>
        <mxCell id="6q0_t8DYAI5YDyTMYEAV-93" value="&lt;b&gt;&lt;font style=&quot;font-size: 14px;&quot;&gt;START&lt;/font&gt;&lt;/b&gt;" style="text;html=1;align=center;verticalAlign=middle;resizable=0;points=[];autosize=1;strokeColor=none;fillColor=none;" vertex="1" parent="1">
          <mxGeometry x="715" y="838" width="70" height="30" as="geometry" />
        </mxCell>
        <mxCell id="6q0_t8DYAI5YDyTMYEAV-94" value="" style="endArrow=classic;html=1;rounded=0;entryX=0;entryY=0.5;entryDx=0;entryDy=0;strokeWidth=5;" edge="1" parent="1" target="6q0_t8DYAI5YDyTMYEAV-73">
          <mxGeometry width="50" height="50" relative="1" as="geometry">
            <mxPoint x="420" y="620" as="sourcePoint" />
            <mxPoint x="610" y="950" as="targetPoint" />
            <Array as="points">
              <mxPoint x="420" y="680" />
              <mxPoint x="420" y="770" />
              <mxPoint x="500" y="770" />
              <mxPoint x="540" y="770" />
            </Array>
          </mxGeometry>
        </mxCell>
        <mxCell id="6q0_t8DYAI5YDyTMYEAV-95" value="" style="endArrow=classic;html=1;rounded=0;strokeWidth=5;strokeColor=#f0f0f0;exitX=0.5;exitY=1;exitDx=0;exitDy=0;entryX=0.5;entryY=0;entryDx=0;entryDy=0;" edge="1" parent="1" target="6q0_t8DYAI5YDyTMYEAV-73">
          <mxGeometry width="50" height="50" relative="1" as="geometry">
            <mxPoint x="720.0000000000005" y="580" as="sourcePoint" />
            <mxPoint x="721" y="680" as="targetPoint" />
            <Array as="points" />
          </mxGeometry>
        </mxCell>
        <mxCell id="6q0_t8DYAI5YDyTMYEAV-96" value="" style="endArrow=classic;html=1;rounded=0;strokeWidth=5;" edge="1" parent="1">
          <mxGeometry width="50" height="50" relative="1" as="geometry">
            <mxPoint x="369" y="620" as="sourcePoint" />
            <mxPoint x="40" y="1220" as="targetPoint" />
            <Array as="points">
              <mxPoint x="369" y="771.49" />
              <mxPoint x="280" y="771.49" />
              <mxPoint x="40" y="771" />
            </Array>
          </mxGeometry>
        </mxCell>
        <mxCell id="6q0_t8DYAI5YDyTMYEAV-97" value="&lt;b&gt;&lt;font color=&quot;#0ced45&quot; style=&quot;font-size: 14px;&quot;&gt;START CONTROLLER&lt;br&gt;SCRIPT&lt;/font&gt;&lt;/b&gt;" style="text;html=1;align=center;verticalAlign=middle;resizable=0;points=[];autosize=1;strokeColor=none;fillColor=none;" vertex="1" parent="1">
          <mxGeometry x="645" y="1358" width="170" height="50" as="geometry" />
        </mxCell>
        <mxCell id="6q0_t8DYAI5YDyTMYEAV-98" value="&lt;b&gt;&lt;font color=&quot;#e71313&quot; style=&quot;font-size: 14px;&quot;&gt;STOP CONTROLLER&lt;br&gt;SCRIPT&lt;/font&gt;&lt;/b&gt;" style="text;html=1;align=center;verticalAlign=middle;resizable=0;points=[];autosize=1;" vertex="1" parent="1">
          <mxGeometry x="936" y="1360" width="160" height="50" as="geometry" />
        </mxCell>
        <mxCell id="6q0_t8DYAI5YDyTMYEAV-101" value="&lt;font style=&quot;font-size: 14px;&quot;&gt;STORE STEP FUNCTION LOGS&amp;nbsp;&lt;br&gt;IN&amp;nbsp;&lt;br&gt;CLOUDWATCH LOGS&lt;/font&gt;" style="text;html=1;align=center;verticalAlign=middle;resizable=0;points=[];autosize=1;strokeColor=none;fillColor=none;fontStyle=1" vertex="1" parent="1">
          <mxGeometry x="-65" y="1383" width="230" height="60" as="geometry" />
        </mxCell>
        <mxCell id="6q0_t8DYAI5YDyTMYEAV-102" value="Start time to trigger IOSA controller start" style="html=1;shadow=0;dashed=0;shape=mxgraph.bootstrap.rrect;rSize=5;strokeColor=#CED4DA;html=1;whiteSpace=wrap;fillColor=#FFFFFF;fontColor=#7D868C;align=left;spacingLeft=80;spacing=15;fontSize=14;" vertex="1" parent="1">
          <mxGeometry x="-290" y="240" width="410" height="40" as="geometry" />
        </mxCell>
        <mxCell id="6q0_t8DYAI5YDyTMYEAV-103" value="" style="shape=triangle;direction=south;fillColor=#343A40;strokeColor=none;perimeter=none;" vertex="1" parent="6q0_t8DYAI5YDyTMYEAV-102">
          <mxGeometry x="1" y="0.5" width="7" height="3" relative="1" as="geometry">
            <mxPoint x="-17" y="1" as="offset" />
          </mxGeometry>
        </mxCell>
        <mxCell id="6q0_t8DYAI5YDyTMYEAV-104" value="" style="shape=triangle;direction=north;fillColor=#343A40;strokeColor=none;perimeter=none;" vertex="1" parent="6q0_t8DYAI5YDyTMYEAV-102">
          <mxGeometry x="1" y="0.5" width="7" height="3" relative="1" as="geometry">
            <mxPoint x="-17" y="-4" as="offset" />
          </mxGeometry>
        </mxCell>
        <mxCell id="6q0_t8DYAI5YDyTMYEAV-105" value="user input" style="html=1;shadow=0;dashed=0;shape=mxgraph.bootstrap.leftButton;strokeColor=#CED4DA;gradientColor=inherit;fontColor=inherit;fillColor=#E9ECEF;rSize=5;perimeter=none;whiteSpace=wrap;resizeHeight=1;fontSize=14;align=left;spacing=15;" vertex="1" parent="6q0_t8DYAI5YDyTMYEAV-102">
          <mxGeometry width="80" height="40" relative="1" as="geometry" />
        </mxCell>
        <mxCell id="6q0_t8DYAI5YDyTMYEAV-106" value="Stop time to trigger IOSA controller stop" style="html=1;shadow=0;dashed=0;shape=mxgraph.bootstrap.rrect;rSize=5;strokeColor=#CED4DA;html=1;whiteSpace=wrap;fillColor=#FFFFFF;fontColor=#7D868C;align=left;spacingLeft=80;spacing=15;fontSize=14;" vertex="1" parent="1">
          <mxGeometry x="-290" y="290" width="410" height="40" as="geometry" />
        </mxCell>
        <mxCell id="6q0_t8DYAI5YDyTMYEAV-107" value="" style="shape=triangle;direction=south;fillColor=#343A40;strokeColor=none;perimeter=none;" vertex="1" parent="6q0_t8DYAI5YDyTMYEAV-106">
          <mxGeometry x="1" y="0.5" width="7" height="3" relative="1" as="geometry">
            <mxPoint x="-17" y="1" as="offset" />
          </mxGeometry>
        </mxCell>
        <mxCell id="6q0_t8DYAI5YDyTMYEAV-108" value="" style="shape=triangle;direction=north;fillColor=#343A40;strokeColor=none;perimeter=none;" vertex="1" parent="6q0_t8DYAI5YDyTMYEAV-106">
          <mxGeometry x="1" y="0.5" width="7" height="3" relative="1" as="geometry">
            <mxPoint x="-17" y="-4" as="offset" />
          </mxGeometry>
        </mxCell>
        <mxCell id="6q0_t8DYAI5YDyTMYEAV-109" value="user input" style="html=1;shadow=0;dashed=0;shape=mxgraph.bootstrap.leftButton;strokeColor=#CED4DA;gradientColor=inherit;fontColor=inherit;fillColor=#E9ECEF;rSize=5;perimeter=none;whiteSpace=wrap;resizeHeight=1;fontSize=14;align=left;spacing=15;" vertex="1" parent="6q0_t8DYAI5YDyTMYEAV-106">
          <mxGeometry width="80" height="40" relative="1" as="geometry" />
        </mxCell>
        <mxCell id="6q0_t8DYAI5YDyTMYEAV-110" value="Choose option for&amp;nbsp; (Daily, Weekly, Monthly)" style="html=1;shadow=0;dashed=0;shape=mxgraph.bootstrap.rrect;rSize=5;strokeColor=#CED4DA;html=1;whiteSpace=wrap;fillColor=#FFFFFF;fontColor=#7D868C;align=left;spacingLeft=80;spacing=15;fontSize=14;" vertex="1" parent="1">
          <mxGeometry x="-290" y="190" width="410" height="40" as="geometry" />
        </mxCell>
        <mxCell id="6q0_t8DYAI5YDyTMYEAV-111" value="" style="shape=triangle;direction=south;fillColor=#343A40;strokeColor=none;perimeter=none;" vertex="1" parent="6q0_t8DYAI5YDyTMYEAV-110">
          <mxGeometry x="1" y="0.5" width="7" height="3" relative="1" as="geometry">
            <mxPoint x="-17" y="1" as="offset" />
          </mxGeometry>
        </mxCell>
        <mxCell id="6q0_t8DYAI5YDyTMYEAV-112" value="" style="shape=triangle;direction=north;fillColor=#343A40;strokeColor=none;perimeter=none;" vertex="1" parent="6q0_t8DYAI5YDyTMYEAV-110">
          <mxGeometry x="1" y="0.5" width="7" height="3" relative="1" as="geometry">
            <mxPoint x="-17" y="-4" as="offset" />
          </mxGeometry>
        </mxCell>
        <mxCell id="6q0_t8DYAI5YDyTMYEAV-113" value="user input" style="html=1;shadow=0;dashed=0;shape=mxgraph.bootstrap.leftButton;strokeColor=#CED4DA;gradientColor=inherit;fontColor=inherit;fillColor=#E9ECEF;rSize=5;perimeter=none;whiteSpace=wrap;resizeHeight=1;fontSize=14;align=left;spacing=15;" vertex="1" parent="6q0_t8DYAI5YDyTMYEAV-110">
          <mxGeometry width="80" height="40" relative="1" as="geometry" />
        </mxCell>
        <mxCell id="6q0_t8DYAI5YDyTMYEAV-114" value="" style="sketch=0;outlineConnect=0;fontColor=#232F3E;gradientColor=none;fillColor=#E7157B;strokeColor=none;dashed=0;verticalLabelPosition=bottom;verticalAlign=top;align=center;html=1;fontSize=12;fontStyle=0;aspect=fixed;pointerEvents=1;shape=mxgraph.aws4.event_event_based;" vertex="1" parent="1">
          <mxGeometry x="520" y="200" width="78" height="78" as="geometry" />
        </mxCell>
        <mxCell id="6q0_t8DYAI5YDyTMYEAV-115" value="" style="sketch=0;outlineConnect=0;fontColor=#232F3E;gradientColor=none;fillColor=#E7157B;strokeColor=none;dashed=0;verticalLabelPosition=bottom;verticalAlign=top;align=center;html=1;fontSize=12;fontStyle=0;aspect=fixed;pointerEvents=1;shape=mxgraph.aws4.event_time_based;" vertex="1" parent="1">
          <mxGeometry x="190" y="200" width="78" height="78" as="geometry" />
        </mxCell>
        <mxCell id="6q0_t8DYAI5YDyTMYEAV-116" value="&lt;b&gt;&lt;font style=&quot;font-size: 14px;&quot;&gt;Event Based Threshold&lt;/font&gt;&lt;/b&gt;" style="text;html=1;align=center;verticalAlign=middle;resizable=0;points=[];autosize=1;strokeColor=none;fillColor=none;" vertex="1" parent="1">
          <mxGeometry x="469" y="290" width="180" height="30" as="geometry" />
        </mxCell>
        <mxCell id="6q0_t8DYAI5YDyTMYEAV-117" value="&lt;span&gt;&lt;font style=&quot;font-size: 14px;&quot;&gt;Time Based Event&lt;/font&gt;&lt;/span&gt;" style="text;html=1;align=center;verticalAlign=middle;resizable=0;points=[];autosize=1;strokeColor=none;fillColor=none;fontStyle=1" vertex="1" parent="1">
          <mxGeometry x="159" y="290" width="140" height="30" as="geometry" />
        </mxCell>
        <mxCell id="6q0_t8DYAI5YDyTMYEAV-118" value="Max IOPs threshold to trigger controller" style="html=1;shadow=0;dashed=0;shape=mxgraph.bootstrap.rrect;rSize=5;strokeColor=#CED4DA;html=1;whiteSpace=wrap;fillColor=#FFFFFF;fontColor=#7D868C;align=left;spacingLeft=80;spacing=15;fontSize=14;" vertex="1" parent="1">
          <mxGeometry x="630" y="200" width="390" height="40" as="geometry" />
        </mxCell>
        <mxCell id="6q0_t8DYAI5YDyTMYEAV-119" value="" style="shape=triangle;direction=south;fillColor=#343A40;strokeColor=none;perimeter=none;" vertex="1" parent="6q0_t8DYAI5YDyTMYEAV-118">
          <mxGeometry x="1" y="0.5" width="7" height="3" relative="1" as="geometry">
            <mxPoint x="-17" y="1" as="offset" />
          </mxGeometry>
        </mxCell>
        <mxCell id="6q0_t8DYAI5YDyTMYEAV-120" value="" style="shape=triangle;direction=north;fillColor=#343A40;strokeColor=none;perimeter=none;" vertex="1" parent="6q0_t8DYAI5YDyTMYEAV-118">
          <mxGeometry x="1" y="0.5" width="7" height="3" relative="1" as="geometry">
            <mxPoint x="-17" y="-4" as="offset" />
          </mxGeometry>
        </mxCell>
        <mxCell id="6q0_t8DYAI5YDyTMYEAV-121" value="user input" style="html=1;shadow=0;dashed=0;shape=mxgraph.bootstrap.leftButton;strokeColor=#CED4DA;gradientColor=inherit;fontColor=inherit;fillColor=#E9ECEF;rSize=5;perimeter=none;whiteSpace=wrap;resizeHeight=1;fontSize=14;align=left;spacing=15;" vertex="1" parent="6q0_t8DYAI5YDyTMYEAV-118">
          <mxGeometry width="80" height="40" relative="1" as="geometry" />
        </mxCell>
        <mxCell id="6q0_t8DYAI5YDyTMYEAV-122" value="Min IOPs threshold to trigger controller" style="html=1;shadow=0;dashed=0;shape=mxgraph.bootstrap.rrect;rSize=5;strokeColor=#CED4DA;html=1;whiteSpace=wrap;fillColor=#FFFFFF;fontColor=#7D868C;align=left;spacingLeft=80;spacing=15;fontSize=14;" vertex="1" parent="1">
          <mxGeometry x="630" y="250" width="390" height="40" as="geometry" />
        </mxCell>
        <mxCell id="6q0_t8DYAI5YDyTMYEAV-123" value="" style="shape=triangle;direction=south;fillColor=#343A40;strokeColor=none;perimeter=none;" vertex="1" parent="6q0_t8DYAI5YDyTMYEAV-122">
          <mxGeometry x="1" y="0.5" width="7" height="3" relative="1" as="geometry">
            <mxPoint x="-17" y="1" as="offset" />
          </mxGeometry>
        </mxCell>
        <mxCell id="6q0_t8DYAI5YDyTMYEAV-124" value="" style="shape=triangle;direction=north;fillColor=#343A40;strokeColor=none;perimeter=none;" vertex="1" parent="6q0_t8DYAI5YDyTMYEAV-122">
          <mxGeometry x="1" y="0.5" width="7" height="3" relative="1" as="geometry">
            <mxPoint x="-17" y="-4" as="offset" />
          </mxGeometry>
        </mxCell>
        <mxCell id="6q0_t8DYAI5YDyTMYEAV-125" value="user input" style="html=1;shadow=0;dashed=0;shape=mxgraph.bootstrap.leftButton;strokeColor=#CED4DA;gradientColor=inherit;fontColor=inherit;fillColor=#E9ECEF;rSize=5;perimeter=none;whiteSpace=wrap;resizeHeight=1;fontSize=14;align=left;spacing=15;" vertex="1" parent="6q0_t8DYAI5YDyTMYEAV-122">
          <mxGeometry width="80" height="40" relative="1" as="geometry" />
        </mxCell>
      </root>
    </mxGraphModel>
  </diagram>
</mxfile>
